<svg id="Layer_1" data-name="Layer 1" xmlns="http://www.w3.org/2000/svg" xmlns:xlink="http://www.w3.org/1999/xlink" viewBox="0 0 106 28"><defs><style>.cls-1,.cls-2{fill-rule:evenodd;}.cls-1{fill:url(#linear-gradient);}.cls-2{fill:#fff;}.cls-3{font-size:17.92px;stroke:#000;stroke-miterlimit:10;stroke-width:0.5px;font-family:Helvetica;}.cls-4{letter-spacing:-0.05em;}</style><linearGradient id="linear-gradient" x1="1" y1="14" x2="27.26" y2="14" gradientUnits="userSpaceOnUse"><stop offset="0" stop-color="#d41459"/><stop offset="1" stop-color="#911a6c"/></linearGradient></defs><title>final_01_logo_DSA_</title><path class="cls-1" d="M4.75,1.18H23.51a3.71,3.71,0,0,1,3.75,3.66V23.16a3.71,3.71,0,0,1-3.75,3.66H4.75A3.71,3.71,0,0,1,1,23.16V4.84A3.71,3.71,0,0,1,4.75,1.18Z"/><path class="cls-2" d="M14.36,3.63V25.5a10.94,10.94,0,1,0,0-21.87ZM16.24,22.5V6.81C20,6.81,23,10.32,23,14.66S20,22.5,16.24,22.5Z"/><path class="cls-2" d="M13.9,14.56V25.5A10.93,10.93,0,0,1,6.19,6.81Z"/><path class="cls-2" d="M13.67,2.5v11L5.93,5.71A10.9,10.9,0,0,1,13.67,2.5Z"/><text class="cls-3" transform="translate(32 20.38) scale(0.83 1)">DS<tspan class="cls-4" x="24.89" y="0">A </tspan><tspan x="39.86" y="0">Assist</tspan></text></svg>